<?xml version="1.0" encoding="UTF-8"?>
<!DOCTYPE svg PUBLIC "-//W3C//DTD SVG 1.1//EN" "http://www.w3.org/Graphics/SVG/1.1/DTD/svg11.dtd">
<svg xmlns:dc="http://purl.org/dc/elements/1.1/" xmlns:cc="http://creativecommons.org/ns#" xmlns:rdf="http://www.w3.org/1999/02/22-rdf-syntax-ns#" xmlns:xlink="http://www.w3.org/1999/xlink" xmlns="http://www.w3.org/2000/svg" id="svg-root" version="1.1" viewBox="0 0 780 780">
    <defs id="svg-defs">
        <rect id="outside-border-template" width="777" height="777" style="fill:#658565;stroke-width:6px"/>
        <rect id="board-border-template" width="643" height="643" style="fill:#c5b5a5;stroke-width:6px"/>
        <rect id="dark-square-template" width="80" height="80" style="fill:#854505;stroke-linecap:round;stroke-linejoin:round;stroke-width:2px"/>
    </defs>
    <title id="svg-title">chess board</title>
    <metadata id="svg-metadata"><rdf:RDF>
        <cc:Work rdf:about="">
            <cc:license rdf:resource="http://creativecommons.org/publicdomain/zero/1.0/"/>
            <dc:creator><cc:Agent><dc:title>Chessboard</dc:title></cc:Agent></dc:creator>
            <dc:format>image/svg+xml</dc:format>
            <dc:rights><cc:Agent><dc:title>CC0</dc:title></cc:Agent></dc:rights>
            <dc:title>Chessboard</dc:title>
            <dc:type rdf:resource="http://purl.org/dc/dcmitype/StillImage"/>
        </cc:Work>
        <cc:License rdf:about="https://creativecommons.org/licenses/by-sa/3.0/deed.en">
            <cc:permits rdf:resource="http://creativecommons.org/ns#DerivativeWorks"/>
            <cc:permits rdf:resource="http://creativecommons.org/ns#Distribution"/>
            <cc:permits rdf:resource="http://creativecommons.org/ns#Reproduction"/>
        </cc:License>
    </rdf:RDF></metadata>
    <g id="chess-board" style="stroke:#000">
		<use id="outside-border" x="3" y="3" width="100%" height="100%" xlink:href="#outside-border-template"/>
		<use id="board-border" x="67" y="67" width="100%" height="100%" xlink:href="#board-border-template"/>
		<use id="a1" x="70" y="630" width="100%" height="100%" xlink:href="#dark-square-template"/>
		<use id="c1" x="230" y="630" width="100%" height="100%" xlink:href="#dark-square-template"/>
		<use id="e1" x="390" y="630" width="100%" height="100%" xlink:href="#dark-square-template"/>
		<use id="g1" x="550" y="630" width="100%" height="100%" xlink:href="#dark-square-template"/>
		<use id="a3" x="70" y="470" width="100%" height="100%" xlink:href="#dark-square-template"/>
		<use id="c3" x="230" y="470" width="100%" height="100%" xlink:href="#dark-square-template"/>
		<use id="e3" x="390" y="470" width="100%" height="100%" xlink:href="#dark-square-template"/>
		<use id="g3" x="550" y="470" width="100%" height="100%" xlink:href="#dark-square-template"/>
		<use id="a5" x="70" y="310" width="100%" height="100%" xlink:href="#dark-square-template"/>
		<use id="c5" x="230" y="310" width="100%" height="100%" xlink:href="#dark-square-template"/>
		<use id="e5" x="390" y="310" width="100%" height="100%" xlink:href="#dark-square-template"/>
		<use id="g5" x="550" y="310" width="100%" height="100%" xlink:href="#dark-square-template"/>
		<use id="a7" x="70" y="150" width="100%" height="100%" xlink:href="#dark-square-template"/>
		<use id="c7" x="230" y="150" width="100%" height="100%" xlink:href="#dark-square-template"/>
		<use id="e7" x="390" y="150" width="100%" height="100%" xlink:href="#dark-square-template"/>
		<use id="g7" x="550" y="150" width="100%" height="100%" xlink:href="#dark-square-template"/>
		<use id="b2" x="150" y="550" width="100%" height="100%" xlink:href="#dark-square-template"/>
		<use id="d2" x="310" y="550" width="100%" height="100%" xlink:href="#dark-square-template"/>
		<use id="f2" x="470" y="550" width="100%" height="100%" xlink:href="#dark-square-template"/>
		<use id="h2" x="630" y="550" width="100%" height="100%" xlink:href="#dark-square-template"/>
		<use id="b4" x="150" y="390" width="100%" height="100%" xlink:href="#dark-square-template"/>
		<use id="d4" x="310" y="390" width="100%" height="100%" xlink:href="#dark-square-template"/>
		<use id="f4" x="470" y="390" width="100%" height="100%" xlink:href="#dark-square-template"/>
		<use id="h4" x="630" y="390" width="100%" height="100%" xlink:href="#dark-square-template"/>
		<use id="b6" x="150" y="230" width="100%" height="100%" xlink:href="#dark-square-template"/>
		<use id="d6" x="310" y="230" width="100%" height="100%" xlink:href="#dark-square-template"/>
		<use id="f6" x="470" y="230" width="100%" height="100%" xlink:href="#dark-square-template"/>
		<use id="h6" x="630" y="230" width="100%" height="100%" xlink:href="#dark-square-template"/>
		<use id="b8" x="150" y="70" width="100%" height="100%" xlink:href="#dark-square-template"/>
		<use id="d8" x="310" y="70" width="100%" height="100%" xlink:href="#dark-square-template"/>
		<use id="f8" x="470" y="70" width="100%" height="100%" xlink:href="#dark-square-template"/>
		<use id="h8" x="630" y="70" width="100%" height="100%" xlink:href="#dark-square-template"/>
    </g>
    <g id="axis-labels" font-size="40px">
        <g id="left-numbers">
            <text x="35" y="110" text-anchor="middle" dominant-baseline="central">1</text>
            <text x="35" y="190" text-anchor="middle" dominant-baseline="central">2</text>
            <text x="35" y="270" text-anchor="middle" dominant-baseline="central">3</text>
            <text x="35" y="350" text-anchor="middle" dominant-baseline="central">4</text>
            <text x="35" y="430" text-anchor="middle" dominant-baseline="central">5</text>
            <text x="35" y="510" text-anchor="middle" dominant-baseline="central">6</text>
            <text x="35" y="590" text-anchor="middle" dominant-baseline="central">7</text>
            <text x="35" y="670" text-anchor="middle" dominant-baseline="central">8</text>
        </g>
        <g id="bottom-letters">
            <text x="110" y="745" text-anchor="middle" dominant-baseline="central">H</text>
            <text x="190" y="745" text-anchor="middle" dominant-baseline="central">G</text>
            <text x="270" y="745" text-anchor="middle" dominant-baseline="central">F</text>
            <text x="350" y="745" text-anchor="middle" dominant-baseline="central">E</text>
            <text x="430" y="745" text-anchor="middle" dominant-baseline="central">D</text>
            <text x="510" y="745" text-anchor="middle" dominant-baseline="central">C</text>
            <text x="590" y="745" text-anchor="middle" dominant-baseline="central">B</text>
            <text x="670" y="745" text-anchor="middle" dominant-baseline="central">A</text>
        </g>
        <g id="right-numbers">
            <text x="745" y="110" text-anchor="middle" dominant-baseline="central">1</text>
            <text x="745" y="190" text-anchor="middle" dominant-baseline="central">2</text>
            <text x="745" y="270" text-anchor="middle" dominant-baseline="central">3</text>
            <text x="745" y="350" text-anchor="middle" dominant-baseline="central">4</text>
            <text x="745" y="430" text-anchor="middle" dominant-baseline="central">5</text>
            <text x="745" y="510" text-anchor="middle" dominant-baseline="central">6</text>
            <text x="745" y="590" text-anchor="middle" dominant-baseline="central">7</text>
            <text x="745" y="670" text-anchor="middle" dominant-baseline="central">8</text>
        </g>
        <g id="top-letters">
            <text x="110" y="35" text-anchor="middle" dominant-baseline="central">H</text>
            <text x="190" y="35" text-anchor="middle" dominant-baseline="central">G</text>
            <text x="270" y="35" text-anchor="middle" dominant-baseline="central">F</text>
            <text x="350" y="35" text-anchor="middle" dominant-baseline="central">E</text>
            <text x="430" y="35" text-anchor="middle" dominant-baseline="central">D</text>
            <text x="510" y="35" text-anchor="middle" dominant-baseline="central">C</text>
            <text x="590" y="35" text-anchor="middle" dominant-baseline="central">B</text>
            <text x="670" y="35" text-anchor="middle" dominant-baseline="central">A</text>
        </g>
    </g>
</svg>
